<svg xmlns="http://www.w3.org/2000/svg" width="239.289" height="199.167" viewBox="0 0 239.289 199.167">
  <g id="Group_48" data-name="Group 48" transform="translate(-885.096 -2172)">
    <g id="home" transform="translate(885.096 2172)">
      <g id="Group_35" data-name="Group 35" transform="translate(0 0)">
        <path id="Path_14" data-name="Path 14" d="M141,120.939,65.83,182.906a1.776,1.776,0,0,1-.066.392,1.788,1.788,0,0,0-.066.39v62.748a8.489,8.489,0,0,0,8.367,8.369h50.2V204.6h33.469v50.2h50.2a8.5,8.5,0,0,0,8.37-8.371V183.687a1.839,1.839,0,0,0-.132-.782Z" transform="translate(-35.616 -87.081)" fill="#296451"/>
        <path id="Path_15" data-name="Path 15" d="M209.305,128.7l-28.627-23.792V51.57a4.03,4.03,0,0,0-4.184-4.183H151.4a4.024,4.024,0,0,0-4.183,4.183V77.062l-31.9-26.669a16.217,16.217,0,0,0-19.868,0l-94,78.307a3.8,3.8,0,0,0-1.438,2.81,4.233,4.233,0,0,0,.914,3.074l8.1,9.674a4.459,4.459,0,0,0,2.745,1.439,4.859,4.859,0,0,0,3.139-.915L105.38,69.349l90.463,75.431a4.029,4.029,0,0,0,2.745.912h.393a4.464,4.464,0,0,0,2.745-1.437l8.106-9.673a4.231,4.231,0,0,0,.912-3.075A3.809,3.809,0,0,0,209.305,128.7Z" transform="translate(0.001 -46.994)" fill="#296451"/>
      </g>
    </g>
    <g id="text-file-1" transform="translate(1053.524 2286.234)">
      <g id="Group_36" data-name="Group 36" transform="translate(0)">
        <path id="Path_16" data-name="Path 16" d="M77,35.18A5.254,5.254,0,0,1,71.726,29.9V0h-29.9a5.088,5.088,0,0,0-3.738,1.539,5.087,5.087,0,0,0-1.539,3.738V79.156a5.254,5.254,0,0,0,5.277,5.277h59.808a5.254,5.254,0,0,0,5.276-5.277V35.18ZM92.834,68.6a1.692,1.692,0,0,1-1.758,1.758h-38.7A1.692,1.692,0,0,1,50.618,68.6V65.083a1.692,1.692,0,0,1,1.759-1.759h38.7a1.691,1.691,0,0,1,1.758,1.759Zm0-14.073a1.691,1.691,0,0,1-1.758,1.759h-38.7a1.692,1.692,0,0,1-1.759-1.759V51.011a1.692,1.692,0,0,1,1.759-1.758h38.7a1.691,1.691,0,0,1,1.758,1.758Z" transform="translate(-36.546)" fill="#359274" stroke="#fff" stroke-width="1"/>
        <path id="Path_17" data-name="Path 17" d="M280.218,21.578,263.067,4.427A13.358,13.358,0,0,0,255.81.854v27.98h27.98A13.356,13.356,0,0,0,280.218,21.578Z" transform="translate(-213.594 -0.69)" fill="#359274" stroke="#fff" stroke-width="1"/>
      </g>
    </g>
  </g>
</svg>
