<svg xmlns="http://www.w3.org/2000/svg" width="117.83" height="113.407" viewBox="0 0 117.83 113.407">
  <g id="Group_51" data-name="Group 51" transform="translate(-467 -2313.093)">
    <g id="Group_38" data-name="Group 38" transform="translate(461.251 2313.093)">
      <path id="Path_24" data-name="Path 24" d="M57.079,45.158a21.754,21.754,0,0,0,15.965-6.615,21.753,21.753,0,0,0,6.615-15.964A21.757,21.757,0,0,0,73.044,6.614,21.759,21.759,0,0,0,57.079,0,21.755,21.755,0,0,0,41.114,6.614,21.755,21.755,0,0,0,34.5,22.579a21.752,21.752,0,0,0,6.615,15.964A21.757,21.757,0,0,0,57.079,45.158Z" transform="translate(-9.934 0)" fill="#296451"/>
      <path id="Path_25" data-name="Path 25" d="M88.333,90.856a60.2,60.2,0,0,0-.823-6.409,49.856,49.856,0,0,0-1.559-6.38,30.257,30.257,0,0,0-2.529-5.733,20.652,20.652,0,0,0-3.646-4.763,15.352,15.352,0,0,0-5.026-3.145,17.676,17.676,0,0,0-6.558-1.176,7.188,7.188,0,0,0-2.47,1.264q-1.939,1.264-4.38,2.823a27.814,27.814,0,0,1-6.35,2.821,25,25,0,0,1-15.7,0,27.807,27.807,0,0,1-6.351-2.821q-2.44-1.559-4.38-2.823a7.186,7.186,0,0,0-2.47-1.264,17.664,17.664,0,0,0-6.556,1.176,15.348,15.348,0,0,0-5.028,3.145,20.678,20.678,0,0,0-3.645,4.763,30.3,30.3,0,0,0-2.528,5.733,49.859,49.859,0,0,0-1.558,6.38,59.843,59.843,0,0,0-.824,6.409q-.206,2.971-.206,6.087,0,7.055,4.292,11.143t11.408,4.085H72.841q7.114,0,11.407-4.085t4.293-11.143Q88.54,93.827,88.333,90.856Z" transform="translate(0 -21.855)" fill="#296451"/>
    </g>
    <g id="text-file-1" transform="translate(498.788 2367.204)">
      <g id="Group_39" data-name="Group 39" transform="translate(36.546)">
        <path id="Path_26" data-name="Path 26" d="M64.719,24.5a3.659,3.659,0,0,1-3.675-3.675V0H40.221a3.543,3.543,0,0,0-2.6,1.072,3.543,3.543,0,0,0-1.072,2.6V55.121A3.659,3.659,0,0,0,40.221,58.8H81.868a3.659,3.659,0,0,0,3.674-3.675V24.5ZM75.743,47.772A1.178,1.178,0,0,1,74.519,49H47.57a1.178,1.178,0,0,1-1.225-1.224v-2.45A1.178,1.178,0,0,1,47.57,44.1H74.519a1.178,1.178,0,0,1,1.224,1.225Zm0-9.8A1.178,1.178,0,0,1,74.519,39.2H47.57a1.178,1.178,0,0,1-1.225-1.225v-2.45A1.178,1.178,0,0,1,47.57,34.3H74.519a1.178,1.178,0,0,1,1.224,1.224Z" transform="translate(-36.546)" fill="#359274" stroke="#fff" stroke-width="1"/>
        <path id="Path_27" data-name="Path 27" d="M272.806,15.286,260.864,3.342A9.3,9.3,0,0,0,255.81.854V20.338h19.484A9.3,9.3,0,0,0,272.806,15.286Z" transform="translate(-226.413 -0.739)" fill="#359274" stroke="#fff" stroke-width="1"/>
      </g>
    </g>
  </g>
</svg>
